<?xml version="1.0" standalone="no"?>
<!DOCTYPE svg PUBLIC "-//W3C//DTD SVG 1.1//EN" "http://www.w3.org/Graphics/SVG/1.1/DTD/svg11.dtd" >
<svg xmlns="http://www.w3.org/2000/svg">
<metadata>
This is a custom SVG webfont generated by Font Squirrel.
Copyright   : Enigmatic 2003 by Starving4 Entertainment dartpuzzlersorg This font is licensed under the terms of the Design Science Licence httpdslorgcopyleftdsltxt
Designer    : Darren Rigby
Foundry     : Starving4 Entertainment
Foundry URL : httpdartcanadatripodcomObjets
</metadata>
<defs>
<font id="webfontQ7zAMGTP" horiz-adv-x="1193" >
<font-face units-per-em="2048" ascent="1638" descent="-410" />
<missing-glyph horiz-adv-x="512" />
<glyph unicode=" "  horiz-adv-x="512" />
<glyph unicode="&#x09;" horiz-adv-x="512" />
<glyph unicode="&#xa0;" horiz-adv-x="512" />
<glyph unicode="!" horiz-adv-x="382" d="M0 106q0 -106 106.5 -106t106.5 106.5t-106.5 106t-106.5 -106.5zM0 1536l31 -1217h162l20 1217h-213z" />
<glyph unicode="&#x22;" horiz-adv-x="724" d="M0 1493q18 -82 86 -213h41q68 131 86 213q0 129 -106.5 129t-106.5 -129zM342 1493q18 -90 84 -213h43q68 131 86 213q0 129 -106.5 129t-106.5 -129z" />
<glyph unicode="#" horiz-adv-x="1406" d="M0 342h162l-76 -342h213l76 342h299l-76 -342h213l76 342h180v127h-154l136 598h188v127h-162l76 342h-213l-76 -342h-299l76 342h-213l-76 -342h-180v-127h149l-126 -598h-193v-127zM406 469l126 598h299l-131 -598h-294z" />
<glyph unicode="$" d="M51 406q0 -279 449 -279v-147h127v147q449 0 448 279v169q0 256 -409 322l-39 8v395q236 0 235 -149v-84h213v127q0 279 -448 279v106h-127v-106q-449 0 -449 -279v-190q0 -213 410 -279l39 -6v-420q-236 0 -236 150v83h-213v-126zM264 1087v64q0 150 236 149v-378l-39 6 q-197 34 -197 159zM627 299v401l26 -6q100 -16 149.5 -57t47.5 -105v-83q0 -150 -223 -150z" />
<glyph unicode="%" horiz-adv-x="1536" d="M0 0h236l1130 1536h-236zM0 981q0 -193 319.5 -193t319.5 193v385q0 190 -320 190q-319 0 -319 -190v-385zM150 1024v299q0 106 169 107q172 0 173 -107v-299q0 -106 -173 -106q-169 0 -169 106zM725 170q0 -190 319 -190q322 0 322 190v385q0 193 -322 193 q-319 0 -319 -193v-385zM874 213v299q0 106 170 106q172 0 173 -106v-299q0 -106 -173 -107q-170 1 -170 107z" />
<glyph unicode="&#x26;" horiz-adv-x="1449" d="M0 385v383q0 193 193 193q-106 104 -107 233v86q0 276 487 276q537 0 537 -276v-213h-213v170q0 150 -313 149q-285 0 -285 -145v-24q0 -66 63 -150l674 -764q28 49 31 123v213h213v-297q-4 -123 -80 -205l109 -137h-265l-24 27q-143 -59 -422 -47q-598 -1 -598 405z M213 426q0 -276 385 -276q168 0 281 38l-537 600q-129 63 -129 -106v-256z" />
<glyph unicode="'" horiz-adv-x="382" d="M0 1194q213 0 213 236q0 106 -106.5 106t-106.5 -106.5t106 -106.5q0 -63 -106 -63v-66z" />
<glyph unicode="(" horiz-adv-x="702" d="M0 768q0 -852 532 -938v170q-319 129 -319 768t319 768v170q-532 -86 -532 -938z" />
<glyph unicode=")" horiz-adv-x="702" d="M0 0v-170q532 86 532 938t-532 938v-170q319 -129 319 -768t-319 -768z" />
<glyph unicode="*" horiz-adv-x="907" d="M127 1331l31 90l194 -4l56 185h94l55 -187l195 4l28 -88l-159 -110l63 -185l-74 -55l-155 119l-156 -117l-76 53l64 185z" />
<glyph unicode="+" horiz-adv-x="1024" d="M0 682v172h342v340h170v-340h342v-172h-342v-340h-170v340h-342z" />
<glyph unicode="," horiz-adv-x="382" d="M0 106q0 -106 106 -106q0 -150 -106 -150v-63q213 0 213 319q0 106 -106.5 106t-106.5 -106z" />
<glyph unicode="-" horiz-adv-x="1024" d="M0 682h854v172h-854v-172z" />
<glyph unicode="." horiz-adv-x="464" d="M127 104q0 -109 104 -108q106 0 107 108q0 111 -107 111q-104 0 -104 -111z" />
<glyph unicode="/" horiz-adv-x="935" d="M-86 -43l897 1622h213l-897 -1622h-213z" />
<glyph unicode="0" d="M51 256q0 -276 461 -276t461 276v1024q0 276 -461 276t-461 -276v-1024zM264 299v938q0 150 248 149.5t248 -149.5v-938q0 -150 -248 -150t-248 150z" />
<glyph unicode="1" d="M283 1237h245v-1237h213v1536h-213q0 -127 -245 -127v-172z" />
<glyph unicode="2" d="M0 0v598q0 211 410 276l204 31q197 33 197 162v170q0 150 -301 149q-297 0 -297 -149v-170h-213v213q0 276 512 276t512 -276v-256q0 -211 -410 -276l-204 -33q-197 -35 -197 -160v-385h811v-170h-1024z" />
<glyph unicode="3" d="M0 256q0 -276 512 -276t512 276v299q0 256 -213 256q213 0 213 256v213q0 276 -512 276t-512 -276v-213h213v170q0 150 299 149.5t299 -149.5v-213q0 -127 -172 -127h-297v-172h297q172 0 172 -127v-299q0 -150 -299 -149.5t-299 149.5v170h-213v-213z" />
<glyph unicode="4" d="M0 299h717v-299h213v299h94v170h-94v1067h-213l-717 -1067v-170zM205 469l512 756v-756h-512z" />
<glyph unicode="5" d="M0 256q0 -276 512 -276t512 276v598q0 276 -405.5 276t-405.5 -169v405h811v170h-1024v-811h213v86q0 150 299 150t299 -150v-512q0 -150 -299 -149.5t-299 149.5v170h-213v-213z" />
<glyph unicode="6" d="M0 256v1024q0 276 512 276t512 -276v-213h-213v170q0 150 -299 149.5t-299 -149.5v-449q0 172 405.5 172.5t405.5 -278.5v-426q0 -276 -512 -276t-512 276zM213 299q0 -150 299 -149.5t299 149.5v340q0 150 -299 149.5t-299 -149.5v-340z" />
<glyph unicode="7" d="M43 1366h778q-344 -250 -456 -569q-117 -330 -205 -797h215q33 238 155 655q121 408 451 676v205h-938v-170z" />
<glyph unicode="8" d="M0 256q0 -276 512 -276t512 276v299q0 256 -213 256q213 0 213 256v213q0 276 -512 276t-512 -276v-213q0 -256 213 -256q-213 0 -213 -256v-299zM213 299v299q0 127 299 127t299 -127v-299q0 -150 -299 -150t-299 150zM213 1024v213q0 150 299 149.5t299 -149.5v-213 q0 -127 -299 -127t-299 127z" />
<glyph unicode="9" d="M0 256v213h213v-170q0 -150 299 -149.5t299 149.5v449q0 -172 -405.5 -172.5t-405.5 278.5v426q0 276 512 276t512 -276v-1024q0 -276 -512 -276t-512 276zM213 897q0 -150 299 -149.5t299 149.5v340q0 150 -299 149.5t-299 -149.5v-340z" />
<glyph unicode=":" horiz-adv-x="382" d="M0 106q0 -106 106.5 -106t106.5 106.5t-106.5 106t-106.5 -106.5zM0 748q0 -109 106.5 -109t106.5 109q0 106 -106.5 106t-106.5 -106z" />
<glyph unicode=";" horiz-adv-x="382" d="M0 106q0 -106 106 -106q0 -150 -106 -150v-63q213 0 213 319q0 106 -106.5 106t-106.5 -106zM0 748q0 -109 106.5 -109t106.5 109q0 106 -106.5 106t-106.5 -106z" />
<glyph unicode="&#x3c;" horiz-adv-x="1024" d="M0 768l682 -555l172 86l-598 469l598 469l-172 86z" />
<glyph unicode="=" horiz-adv-x="1150" d="M127 512h897v170h-897v-170zM127 854h897v170h-897v-170z" />
<glyph unicode="&#x3e;" horiz-adv-x="1024" d="M0 299l170 -86l684 555l-684 555l-170 -86l598 -469z" />
<glyph unicode="?" d="M0 1067v213q0 276 506 276q518 0 518 -276v-299q0 -209 -207 -248l-184 -57q-78 -23 -78 -78v-129h-213v160q4 162 164 205l190 49q115 45 115 121v233q0 150 -307 149q-291 0 -291 -149v-170h-213zM342 106q0 -106 106.5 -106t106.5 106.5t-106.5 106t-106.5 -106.5z " />
<glyph unicode="@" horiz-adv-x="1536" d="M0 426v684q0 446 682 446q684 0 684 -446v-598q0 -186 -256 -193q-256 23 -256 173q0 -172 -223 -173q-332 0 -332 279v33q0 266 383 266q172 0 172 102q0 111 -172 111q-170 0 -170 -149h-213v43q0 276 383 276q385 0 385 -276v-472q0 -63 43 -63q41 0 41 63v535 q0 319 -469 319t-469 -319v-598q0 -299 469 -299h469v-170h-469q-682 0 -682 426zM512 618q0 -127 170 -126q172 0 172 200v111q0 -78 -172 -78q-170 -1 -170 -107z" />
<glyph unicode="A" horiz-adv-x="1382" d="M0 0l520 1536h240l520 -1536h-256l-137 426h-494l-137 -426h-256zM449 598h382l-192 614z" />
<glyph unicode="B" d="M0 0h725q299 0 299 256v299q0 256 -256 256q256 0 256 213v256q0 256 -299 256h-725v-1536zM213 170v555h426q172 0 172 -127v-299q0 -129 -172 -129h-426zM213 897v469h426q172 0 172 -129v-213q0 -127 -172 -127h-426z" />
<glyph unicode="C" d="M0 256q0 -276 512 -276t512 276v213h-213v-170q0 -150 -299 -149.5t-299 149.5v938q0 150 299 149.5t299 -149.5v-170h213v213q0 276 -512 276t-512 -276v-1024z" />
<glyph unicode="D" d="M0 0h725q299 0 299 256v1024q0 256 -299 256h-725v-1536zM213 170v1196h426q172 0 172 -129v-938q0 -129 -172 -129h-426z" />
<glyph unicode="E" horiz-adv-x="1024" d="M0 0v1536h854v-170h-641v-492h535v-169h-535v-535h641v-170h-854z" />
<glyph unicode="F" horiz-adv-x="1024" d="M0 0h213v705h535v169h-535v492h641v170h-854v-1536z" />
<glyph unicode="G" d="M0 256q0 -276 512 -276q299 0 348 170l68 -150h96v854h-633v-172h420v-383q0 -150 -299 -149.5t-299 149.5v938q0 150 299 149.5t299 -149.5v-170h213v213q0 276 -512 276t-512 -276v-1024z" />
<glyph unicode="H" horiz-adv-x="1107" d="M0 0h213v682h512v-682h213v1536h-213v-682h-512v682h-213v-1536z" />
<glyph unicode="I" horiz-adv-x="552" d="M0 0v170h86v1196h-86v170h385v-170h-86v-1196h86v-170h-385z" />
<glyph unicode="J" horiz-adv-x="1064" d="M0 256q0 -276 449 -276t448 276v1280h-215v-1237q0 -150 -233 -149q-236 0 -236 149v170h-213v-213z" />
<glyph unicode="K" horiz-adv-x="1107" d="M0 0h213v539l149 202l371 -741h252l-483 920l442 616h-248l-483 -643v643h-213v-1536z" />
<glyph unicode="L" horiz-adv-x="1024" d="M0 0h854v170h-641v1366h-213v-1536z" />
<glyph unicode="M" horiz-adv-x="1576" d="M0 0h213v1067l362 -1067h256l363 1067v-1067h215v1536h-299l-405 -1214l-406 1214h-299v-1536z" />
<glyph unicode="N" horiz-adv-x="1107" d="M0 0v1536h256l469 -1110v1110h213v-1536h-256l-469 1110v-1110h-213z" />
<glyph unicode="O" d="M0 256v1024q0 276 512 276t512 -276v-1024q0 -276 -512 -276t-512 276zM213 299q0 -150 299 -149.5t299 149.5v938q0 150 -299 149.5t-299 -149.5v-938z" />
<glyph unicode="P" d="M-2 1536h641q385 0 385 -299v-340q0 -299 -385 -299h-426v-598h-213zM213 768h342q256 0 256 170v256q0 172 -256 172h-342v-598z" />
<glyph unicode="Q" d="M0 256q0 -276 512 -276q145 0 256 18l90 -88l170 47l-106 106q106 72 102 193v1024q0 276 -512 276t-512 -276v-1024zM213 299v938q0 150 299 149.5t299 -149.5v-938q2 -51 -39 -90l-233 235l-166 -51l241 -239q-37 -4 -102 -4q-299 -1 -299 149z" />
<glyph unicode="R" d="M0 0h213v682h426q172 0 172 -127v-469q0 -86 86 -86h213q-86 0 -86 86v426q0 256 -213 256q213 0 213 256v256q0 256 -342 256h-682v-1536zM213 854v512h426q172 0 172 -129v-256q0 -127 -172 -127h-426z" />
<glyph unicode="S" d="M0 256q0 -276 512 -276t512 276v342q0 254 -410 320l-204 30q-197 35 -197 162v127q0 150 299 149.5t299 -149.5v-170h213v213q0 276 -512 276t-512 -276v-256q0 -211 410 -276l204 -33q100 -16 149.5 -56.5t47.5 -103.5v-256q0 -150 -299 -149.5t-299 149.5v170h-213 v-213z" />
<glyph unicode="T" horiz-adv-x="1236" d="M0 1366h426v-1366h213v1366h428v170h-1067v-170z" />
<glyph unicode="U" d="M0 256v1280h213v-1237q0 -150 299 -149.5t299 149.5v1237h213v-1280q0 -276 -512 -276t-512 276z" />
<glyph unicode="V" horiz-adv-x="1382" d="M0 1536l520 -1536h240l520 1536h-256l-385 -1212l-383 1212h-256z" />
<glyph unicode="W" horiz-adv-x="1859" d="M0 1536l453 -1536h256l170 870l170 -870h258l450 1536h-237l-342 -1212l-170 1212h-256l-172 -1212l-340 1212h-240z" />
<glyph unicode="X" horiz-adv-x="1363" d="M0 0h248l383 627l385 -627h248l-484 768l484 768h-248l-385 -627l-383 627h-248l481 -768z" />
<glyph unicode="Y" horiz-adv-x="1339" d="M0 1536l512 -981v-555h213v555l512 981h-256l-363 -768l-362 768h-256z" />
<glyph unicode="Z" horiz-adv-x="1064" d="M0 0h897v170h-661l661 1196v170h-897v-170h662l-662 -1196v-170z" />
<glyph unicode="[" horiz-adv-x="595" d="M0 -170h426v170h-213v1536h213v170h-426v-1876z" />
<glyph unicode="\" horiz-adv-x="1087" d="M-2 1575l866 -1630h226l-879 1630h-213z" />
<glyph unicode="]" horiz-adv-x="595" d="M0 0v-170h426v1876h-426v-170h213v-1536h-213z" />
<glyph unicode="^" horiz-adv-x="768" d="M2 1067l274 469h43l279 -469h-86l-213 213l-213 -213h-84z" />
<glyph unicode="_" d="M0 -127v-86h1194v86h-1194z" />
<glyph unicode="`" horiz-adv-x="382" d="M0 1430q0 -236 213 -236v66q-106 0 -107 63q106 0 106.5 106.5t-106 106.5t-106.5 -106z" />
<glyph unicode="a" horiz-adv-x="1024" d="M0 256v145q0 264 426 265q213 0 213 102v43q0 150 -213 150q-182 0 -182 -150v-86h-213v129q0 276 395 276q428 0 428 -276v-704q0 -150 84 -150h-213q-86 0 -86 150q0 -170 -264 -170q-375 0 -375 276zM213 299q0 -150 213 -149.5t213 200.5v221q0 -76 -213 -75.5 t-213 -137.5v-59z" />
<glyph unicode="b" horiz-adv-x="1107" d="M0 0v1579h213v-618q0 170 362.5 169.5t362.5 -276.5v-598q0 -276 -362.5 -276t-362.5 170v-150h-213zM213 299q0 -150 256 -149.5t256 149.5v512q0 150 -256 150t-256 -150v-512z" />
<glyph unicode="c" horiz-adv-x="1107" d="M0 256q0 -276 469 -276t469 276v170h-213v-127q0 -150 -256 -149.5t-256 149.5v512q0 150 256 150t256 -150v-129h213v172q0 276 -469 276t-469 -276v-598z" />
<glyph unicode="d" horiz-adv-x="1107" d="M0 256q0 -276 362.5 -276t362.5 170v-150h213v1579h-213v-618q0 170 -362.5 169.5t-362.5 -276.5v-598zM213 299v512q0 150 256 150t256 -150v-512q0 -150 -256 -150t-256 150z" />
<glyph unicode="e" horiz-adv-x="1107" d="M0 256q0 -276 469 -276t469 276v129h-213v-86q0 -150 -256 -149.5t-256 149.5v170h725v385q0 276 -469 276t-469 -276v-598zM213 639v172q0 150 256 150t256 -150v-172h-512z" />
<glyph unicode="f" horiz-adv-x="716" d="M0 938h119v-938h213v938h215v172h-215v170q0 129 215 129v170h-203q-225 0 -225 -256v-213h-119v-172z" />
<glyph unicode="g" horiz-adv-x="1107" d="M0 -63h213v-64q0 -109 256 -109t256 109v277q0 -170 -362.5 -170t-362.5 276v598q0 276 362.5 276t362.5 -169v149h213v-1280q0 -236 -469 -236t-469 236v107zM213 299q0 -150 256 -149.5t256 149.5v512q0 150 -256 150t-256 -150v-512z" />
<glyph unicode="h" horiz-adv-x="1107" d="M0 0h213v811q0 150 256 150t256 -150v-811h213v854q0 276 -362.5 276t-362.5 -169v618h-213v-1579z" />
<glyph unicode="i" horiz-adv-x="382" d="M-16 1439.5q0 -116.5 122.5 -116.5t122.5 116.5t-122.5 116.5t-122.5 -116.5zM0 0h213v1110h-213v-1110z" />
<glyph unicode="j" horiz-adv-x="382" d="M-154 -406h154q213 0 213 222v1294h-213v-1196q0 -150 -154 -150v-170zM-16 1439.5q0 -116.5 122.5 -116.5t122.5 116.5t-122.5 116.5t-122.5 -116.5z" />
<glyph unicode="k" horiz-adv-x="1024" d="M0 0h213v186l160 228l252 -414h243l-358 608l344 502h-246l-395 -559v1028h-213v-1579z" />
<glyph unicode="l" horiz-adv-x="382" d="M0 0h213v1579h-213v-1579z" />
<glyph unicode="m" horiz-adv-x="1628" d="M0 0h213v811q0 150 205 150t205 -150v-811h213v811q0 150 204.5 150t204.5 -150v-811h213v854q0 276 -290.5 276t-352.5 -137q-47 137 -323 137q-279 0 -279 -169v149h-213v-1110z" />
<glyph unicode="n" horiz-adv-x="1107" d="M0 0h213v811q0 150 256 150t256 -150v-811h213v854q0 276 -362.5 276t-362.5 -169v149h-213v-1110z" />
<glyph unicode="o" horiz-adv-x="1107" d="M0 256q0 -276 469 -276t469 276v598q0 276 -469 276t-469 -276v-598zM213 299v512q0 150 256 150t256 -150v-512q0 -150 -256 -150t-256 150z" />
<glyph unicode="p" horiz-adv-x="1107" d="M0 -406h213v556q0 -170 362.5 -170t362.5 276v598q0 276 -362.5 276t-362.5 -169v149h-213v-1516zM213 299v512q0 150 256 150t256 -150v-512q0 -150 -256 -150t-256 150z" />
<glyph unicode="q" horiz-adv-x="1107" d="M0 256v598q20 276 372.5 276t352.5 -169v149h213v-1516h-213v556q0 -170 -354 -170q-353 0 -371 276zM213 299q0 -150 256 -149.5t256 149.5v512q0 150 -256 150t-256 -150v-512z" />
<glyph unicode="r" horiz-adv-x="972" d="M0 0h213v811q0 150 188.5 150t188.5 -150v-86h213v129q0 276 -295 276t-295 -169v149h-213v-1110z" />
<glyph unicode="s" horiz-adv-x="1107" d="M0 256q0 -276 469 -276t469 276v150q0 238 -469 256q-233 10 -233 100v49q0 150 233 150q236 0 236 -150v-86h213v129q0 276 -449 276t-449 -276v-106q0 -260 449 -279q256 -16 256 -107v-63q0 -150 -256 -149.5t-256 149.5v86h-213v-129z" />
<glyph unicode="t" horiz-adv-x="716" d="M0 938v172h119v340h213v-340h215v-172h-215v-596q0 -172 215 -172v-170h-215q-213 0 -213 256v682h-119z" />
<glyph unicode="u" horiz-adv-x="1107" d="M0 256q0 -276 362.5 -276t362.5 170v-150h213v1110h-213v-811q0 -150 -256 -149.5t-256 149.5v811h-213v-854z" />
<glyph unicode="v" horiz-adv-x="1177" d="M0 1110l410 -1110h256l409 1110h-256l-282 -862l-281 862h-256z" />
<glyph unicode="w" horiz-adv-x="1296" d="M0 1110l248 -1110h213l137 623l135 -623h213l248 1110h-213l-154 -717l-122 717h-213l-134 -717l-145 717h-213z" />
<glyph unicode="x" horiz-adv-x="1099" d="M0 0h248l252 397l252 -397h247l-397 543l397 567h-247l-252 -440l-252 440h-248l397 -567z" />
<glyph unicode="y" d="M0 1110h256l299 -860l281 860h256l-502 -1294q-70 -221 -244 -222h-158v170h131q74 0 103 107l41 129z" />
<glyph unicode="z" horiz-adv-x="1024" d="M0 0h854v170h-606l606 768v172h-854v-172h606l-606 -768v-170z" />
<glyph unicode="{" horiz-adv-x="681" d="M0 682q127 0 127 -127v-428q0 -297 342 -297h43v170h-43q-127 0 -127 86v512q0 170 -129 170q129 0 129 170v512q0 86 127 86h43v170h-43q-342 0 -342 -297v-428q0 -127 -127 -127v-172z" />
<glyph unicode="|" horiz-adv-x="296" d="M-2 -385v2263h129v-2263h-129z" />
<glyph unicode="}" horiz-adv-x="681" d="M0 0v-170h43q342 0 342 297v428q0 127 127 127v172q-127 0 -127 127v428q0 297 -342 297h-43v-170h43q127 0 127 -86v-512q0 -170 129 -170q-129 0 -129 -170v-512q0 -86 -127 -86h-43z" />
<glyph unicode="~" horiz-adv-x="1150" d="M0 639v43q0 256 342 256q172 0 203 -84q31 -86 137 -86t106 86v43h193v-43q0 -256 -342 -256q-170 0 -201 84q-31 86 -139 86q-106 0 -106 -86v-43h-193z" />
<glyph unicode="&#xa1;" horiz-adv-x="382" d="M213 1004q0 106 -106.5 106t-106.5 -106.5t106.5 -106t106.5 106.5zM213 -426l-31 1217h-162l-20 -1217h213z" />
<glyph unicode="&#xa2;" horiz-adv-x="1107" d="M0 469v598q0 276 362 276v193h213v-193q362 0 363 -276v-170h-213v127q0 150 -256 150t-256 -150v-512q0 -150 256 -150t256 150v127h213v-170q0 -276 -363 -276v-193h-213v193q-362 0 -362 276z" />
<glyph unicode="&#xa3;" horiz-adv-x="1320" d="M0 0v170q170 0 170 203v309h-170v172h170v438q0 264 500 264q481 0 481 -264v-225h-213v166q0 154 -266 153q-287 0 -287 -157v-375h426v-172h-426v-246q0 -266 -127 -266h893v-170h-1151z" />
<glyph unicode="&#xa4;" horiz-adv-x="1280" d="M-86 555v127h86v172h-86v127h86v299q0 276 512 276t512 -276v-213h-213v170q0 150 -299 149.5t-299 -149.5v-256h469l-43 -127h-426v-172h385l-43 -127h-342v-256q0 -150 299 -149.5t299 149.5v170h213v-213q0 -276 -512 -276t-512 276v299h-86z" />
<glyph unicode="&#xa5;" horiz-adv-x="1337" d="M0 1536h256l362 -768l363 768h256l-512 -981v-43h172v-86h-172v-84h172v-86h-172v-256h-213v256h-170v86h170v84h-170v86h170v43z" />
<glyph unicode="&#xa6;" horiz-adv-x="368" d="M127 -373v969h115v-969h-115zM127 946v961h115v-961h-115z" />
<glyph unicode="&#xa7;" d="M0 20h213v-40q0 -129 299 -129.5t299 129.5v83q0 113 -299 173q-512 100 -512 296v173q0 182 158 237q-158 90 -158 232v169q0 213 512 213t512 -213v-126h-213v43q0 127 -299 126.5t-299 -126.5v-86q0 -80 299 -170q512 -141 512 -299v-173q0 -182 -158 -237 q162 -80 158 -232v-169q0 -213 -512 -213t-512 213v126zM213 618q0 -154 299 -212l106 -17q193 18 193 143v86q0 123 -299 213l-98 27q-201 -25 -201 -153v-87z" />
<glyph unicode="&#xa8;" horiz-adv-x="808" d="M0 1516q0 106 106.5 106t106.5 -106.5t-106.5 -106t-106.5 106.5zM426 1516q0 106 106.5 106t106.5 -106.5t-106.5 -106t-106.5 106.5z" />
<glyph unicode="&#xa9;" horiz-adv-x="1525" d="M0 410q0 -430 639 -430q641 0 641 407v805q0 365 -641 364q-639 0 -639 -407v-739zM213 406v731q0 250 426 249q428 0 428 -247v-738q0 -252 -428 -251q-426 0 -426 256zM256 502q0 -246 383 -246q385 0 385 254v158h-213v-109q0 -133 -172 -133q-170 0 -170 166v356 q0 162 170 162q172 0 172 -162v-104h213v162q0 274 -385 274q-383 0 -383 -268v-510z" />
<glyph unicode="&#xaa;" horiz-adv-x="630" d="M0 1066v72.5q0 132 213 132.5q106.5 0 106.5 51v21.5q0 75 -106.5 75q-91 0 -91 -75v-43h-106.5v64.5q0 138 197.5 138q214 0 214 -138v-352q0 -75 42 -75h-106.5q-43 0 -43 75q0 -85 -132 -85q-187.5 0 -187.5 138zM106.5 1087.5q0 -75 106.5 -74.75t106.5 100.25v110.5 q0 -38 -106.5 -37.75t-106.5 -68.75v-29.5zM-78 733.408h597.811v120.402h-597.811v-120.402z" />
<glyph unicode="&#xab;" horiz-adv-x="1024" d="M0 731l360 -235v168l-174 102l174 98v176l-360 -225v-84zM410 731l360 -235v168l-174 102l174 98v176l-360 -225v-84z" />
<glyph unicode="&#xac;" horiz-adv-x="1284" d="M131 952v195h1024v-537h-205v342h-819z" />
<glyph unicode="&#xad;" horiz-adv-x="757" d="M123 670h512v188h-512v-188z" />
<glyph unicode="&#xae;" horiz-adv-x="1525" d="M0 410q0 -430 631 -430q649 0 649 407v805q0 365 -647 364q-633 0 -633 -407v-739zM213 406v731q0 250 420 249q434 0 434 -247v-738q0 -252 -440 -251q-414 0 -414 256zM256 342h213v297h233q109 0 109 -86v-119q0 -92 76 -92h196q-59 0 -59 92v158q0 133 -143 133 q143 0 143 154v120q0 195 -264 195h-504v-852zM469 811v213h236q106 0 106 -47v-88q0 -78 -113 -78h-229z" />
<glyph unicode="&#xaf;" horiz-adv-x="1177" d="M2 1614h1176v90h-1176v-90z" />
<glyph unicode="&#x2c9;" horiz-adv-x="1177" d="M2 1614h1176v90h-1176v-90z" />
<glyph unicode="&#xb0;" horiz-adv-x="851" d="M0 1067q0 -213 342 -213q340 0 340 213v256q0 213 -340 213q-342 0 -342 -213v-256zM170 1110v170q0 129 172 129q170 0 170 -129v-170q0 -129 -170 -129q-172 0 -172 129z" />
<glyph unicode="&#xb1;" horiz-adv-x="937" d="M0 852v172h342v340h170v-340h342v-172h-342v-340h-170v340h-342zM0 170h854v172h-854v-172z" />
<glyph unicode="&#xb2;" horiz-adv-x="851" d="M0 768v250q0 176 342 219q127 20 127 106.5t-127 86.5q-129 0 -129 -107v-43h-213v86q0 190 342 190q340 0 340 -190v-86q0 -170 -340 -213q-129 -22 -129 -129h469v-170h-682z" />
<glyph unicode="&#xb3;" horiz-adv-x="894" d="M0 934q0 -186 362.5 -186t362.5 233q0 170 -147 170q147 0 147 172q0 233 -363 233q-362 0 -362 -215v-69h213q0 115 149.5 114.5t149.5 -86.5q0 -84 -106 -83h-130v-130h130q106 0 106 -83q0 -86 -149.5 -86t-149.5 96l-213 -2v-78z" />
<glyph unicode="&#xb4;" horiz-adv-x="512" d="M0 1366l106 256h236l-215 -256h-127z" />
<glyph unicode="&#xb5;" horiz-adv-x="1320" d="M0 -385v1536h213v-809q0 -150 256 -149.5t256 149.5v809h213v-852q66 -154 256 0v-213q-197 -135 -297 84q0 -150 -342 -150t-342 173v-578h-213z" />
<glyph unicode="&#x3bc;" horiz-adv-x="1320" d="M0 -385v1536h213v-809q0 -150 256 -149.5t256 149.5v809h213v-852q66 -154 256 0v-213q-197 -135 -297 84q0 -150 -342 -150t-342 173v-578h-213z" />
<glyph unicode="&#xb6;" d="M0 897v340q0 299 385 299h641l-2 -1536h-213v1366h-86v-1366h-213v598h-127q-385 0 -385 299z" />
<glyph unicode="&#xb7;" horiz-adv-x="468" d="M127 686.5q0 -108.5 104 -108.5q106 0 106.5 108.5t-106.5 108.5q-104 0 -104 -108.5z" />
<glyph unicode="&#x2219;" horiz-adv-x="468" d="M127 686.5q0 -108.5 104 -108.5q106 0 106.5 108.5t-106.5 108.5q-104 0 -104 -108.5z" />
<glyph unicode="&#xb8;" horiz-adv-x="552" d="M0 -240v-49q0 -96 192.5 -96t192.5 96v109q0 94 -76 94q-74 0 -73 -39v168h-86v-256h86v29q0 35 30 34q33 0 33 -43v-71q0 -55 -106.5 -55t-106.5 53v28z" />
<glyph unicode="&#xb9;" horiz-adv-x="552" d="M0 1237h170v-469h215v768h-215q0 -127 -170 -127v-172z" />
<glyph unicode="&#xba;" horiz-adv-x="647" d="M0 1066q0 -138 234.5 -138t234.5 138v299q0 138 -234.5 138t-234.5 -138v-299zM106.5 1087.5v256q0 75 128 75t128 -75v-256q0 -75 -128 -75t-128 75zM-59 733.408h597.811v120.402h-597.811v-120.402z" />
<glyph unicode="&#xbb;" horiz-adv-x="1024" d="M127 496v168l172 102l-172 98v176l360 -225v-84zM537 496v168l172 102l-172 98v176l360 -225v-84z" />
<glyph unicode="&#xbc;" horiz-adv-x="1497" d="M1370 1575l-1038 -1630h-203l1059 1630h182zM311.5 1429.5h122.5v-618.5h106.5v768h-106.5q0 -63.5 -122.5 -63.5v-86zM768 106.5h358.5v-149.5h106.5v149.5h47v85h-47v533.5h-106.5l-358.5 -533.5v-85zM870.5 191.5l256 378v-378h-256z" />
<glyph unicode="&#xbd;" horiz-adv-x="1497" d="M1370 1575l-1038 -1630h-203l1059 1630h182zM311.5 1429.5h122.5v-618.5h106.5v768h-106.5q0 -63.5 -122.5 -63.5v-86zM854 -68v299q0 105.5 205 138l102 15.5q98.5 16.5 98.5 81v85q0 75 -150.5 74.5q-148.5 0 -148.5 -74.5v-85h-106.5v106.5q0 138 256 138t256 -138 v-128q0 -105.5 -205 -138l-102 -16.5q-98.5 -17.5 -98.5 -80v-192.5h405.5v-85h-512z" />
<glyph unicode="&#xbe;" horiz-adv-x="1497" d="M1370 1575l-1038 -1630h-203l1059 1630h182zM127 939q0 -138 256 -138t256 138v149.5q0 128 -106.5 128q106.5 0 106.5 128v106.5q0 138 -256 138t-256 -138v-106.5h106.5v85q0 75 149.5 74.75t149.5 -74.75v-106.5q0 -63.5 -86 -63.5h-148.5v-86h148.5q86 0 86 -63.5 v-149.5q0 -75 -149.5 -74.75t-149.5 74.75v85h-106.5v-106.5zM768 106.5h358.5v-149.5h106.5v149.5h47v85h-47v533.5h-106.5l-358.5 -533.5v-85zM870.5 191.5l256 378v-378h-256z" />
<glyph unicode="&#xbf;" d="M1024 43v-213q0 -276 -506 -276q-518 0 -518 276v299q0 209 207 248l184 57q78 23 78 78v129h213v-160q-4 -162 -164 -205l-190 -49q-115 -45 -115 -121v-233q0 -150 307 -149q291 0 291 149v170h213zM682 1004q0 106 -106.5 106t-106.5 -106.5t106.5 -106t106.5 106.5z " />
<glyph unicode="&#xc0;" horiz-adv-x="1382" d="M0 0l520 1536h240l520 -1536h-256l-137 426h-494l-137 -426h-256zM449 598h382l-192 614zM575 1622l-213 256h256l86 -256h-129z" />
<glyph unicode="&#xc1;" horiz-adv-x="1382" d="M0 0l520 1536h240l520 -1536h-256l-137 426h-494l-137 -426h-256zM449 598h382l-192 614zM575 1622l106 256h236l-215 -256h-127z" />
<glyph unicode="&#xc2;" horiz-adv-x="1382" d="M0 0l520 1536h240l520 -1536h-256l-137 426h-494l-137 -426h-256zM449 598h382l-192 614zM301 1706l317 219h43l320 -219l-107 -127l-233 170l-236 -170z" />
<glyph unicode="&#xc3;" horiz-adv-x="1382" d="M0 0l520 1536h240l520 -1536h-256l-137 426h-494l-137 -426h-256zM449 598h382l-192 614zM256 1579v43q0 213 256 213q106 0 170 -63q66 -66 160 -66q96 0 96 86v43h129v-43q0 -213 -256 -213q-106 0 -169.5 63.5t-162.5 63.5q-96 0 -96 -84v-43h-127z" />
<glyph unicode="&#xc4;" horiz-adv-x="1382" d="M0 0l520 1536h240l520 -1536h-256l-137 426h-494l-137 -426h-256zM449 598h382l-192 614zM342 1772q0 106 106.5 106t106.5 -106.5t-106.5 -106t-106.5 106.5zM768 1772q0 106 106.5 106t106.5 -106.5t-106.5 -106t-106.5 106.5z" />
<glyph unicode="&#xc5;" horiz-adv-x="1382" d="M0 0l520 1536h240l520 -1536h-256l-137 426h-494l-137 -426h-256zM449 598h382l-192 614zM811 1685q0 -127 -172 -126q-170 0 -170 126v86q0 129 170 130q172 0 172 -130v-86zM725 1751q0 63 -86 64q-84 0 -84 -64v-43q0 -63 84 -63q86 0 86 63v43z" />
<glyph unicode="&#xc6;" horiz-adv-x="1800" d="M0 0l811 1536h852v-170h-639v-492h532v-169h-532v-535h639v-170h-852v299h-401l-154 -299h-256zM496 469h315v641z" />
<glyph unicode="&#xc7;" d="M0 256q0 -276 512 -276t512 276v213h-213v-170q0 -150 -299 -149.5t-299 149.5v938q0 150 299 149.5t299 -149.5v-170h213v213q0 276 -512 276t-512 -276v-1024zM299 -240v-49q0 -96 192.5 -96t192.5 96v109q0 94 -76 94q-74 0 -73 -39v168h-86v-256h86v29q0 35 30 34 q33 0 33 -43v-71q0 -55 -106.5 -55t-106.5 53v28z" />
<glyph unicode="&#xc8;" horiz-adv-x="1024" d="M0 0v1536h854v-170h-641v-492h535v-169h-535v-535h641v-170h-854zM383 1622l-213 256h256l86 -256h-129z" />
<glyph unicode="&#xc9;" horiz-adv-x="1024" d="M0 0v1536h854v-170h-641v-492h535v-169h-535v-535h641v-170h-854zM342 1622l106 256h236l-215 -256h-127z" />
<glyph unicode="&#xca;" horiz-adv-x="1024" d="M0 0v1536h854v-170h-641v-492h535v-169h-535v-535h641v-170h-854zM88 1663l317 219h43l320 -219l-107 -127l-233 170l-236 -170z" />
<glyph unicode="&#xcb;" horiz-adv-x="1024" d="M0 0v1536h854v-170h-641v-492h535v-169h-535v-535h641v-170h-854zM127 1772q0 106 106.5 106t106.5 -106.5t-106.5 -106t-106.5 106.5zM553 1772q0 106 106.5 106t106.5 -106.5t-106.5 -106t-106.5 106.5z" />
<glyph unicode="&#xcc;" horiz-adv-x="552" d="M0 0v170h86v1196h-86v170h385v-170h-86v-1196h86v-170h-385zM127 1622l-213 256h256l86 -256h-129z" />
<glyph unicode="&#xcd;" horiz-adv-x="552" d="M0 0v170h86v1196h-86v170h385v-170h-86v-1196h86v-170h-385zM127 1622l106 256h236l-215 -256h-127z" />
<glyph unicode="&#xce;" horiz-adv-x="552" d="M0 0v170h86v1196h-86v170h385v-170h-86v-1196h86v-170h-385zM-148 1663l317 219h43l320 -219l-107 -127l-233 170l-236 -170z" />
<glyph unicode="&#xcf;" horiz-adv-x="552" d="M0 0v170h86v1196h-86v170h385v-170h-86v-1196h86v-170h-385zM-127 1772q0 106 106.5 106t106.5 -106.5t-106.5 -106t-106.5 106.5zM299 1772q0 106 106.5 106t106.5 -106.5t-106.5 -106t-106.5 106.5z" />
<glyph unicode="&#xd0;" horiz-adv-x="1320" d="M-170 682v172h170v682h725q299 0 299 -256v-1024q0 -256 -299 -256h-725v682h-170zM213 170h426q172 0 172 129v938q0 129 -172 129h-426v-512h172v-172h-172v-512z" />
<glyph unicode="&#xd1;" horiz-adv-x="1107" d="M0 0v1536h256l469 -1110v1110h213v-1536h-256l-469 1110v-1110h-213zM86 1579v43q0 213 256 213q106 0 170 -63q66 -66 160 -66q96 0 96 86v43h129v-43q0 -213 -256 -213q-106 0 -169.5 63.5t-162.5 63.5q-96 0 -96 -84v-43h-127z" />
<glyph unicode="&#xd2;" d="M0 256v1024q0 276 512 276t512 -276v-1024q0 -276 -512 -276t-512 276zM213 299q0 -150 299 -149.5t299 149.5v938q0 150 -299 149.5t-299 -149.5v-938zM469 1622l-213 256h256l86 -256h-129z" />
<glyph unicode="&#xd3;" d="M0 256v1024q0 276 512 276t512 -276v-1024q0 -276 -512 -276t-512 276zM213 299q0 -150 299 -149.5t299 149.5v938q0 150 -299 149.5t-299 -149.5v-938zM426 1622l106 256h236l-215 -256h-127z" />
<glyph unicode="&#xd4;" d="M0 256v1024q0 276 512 276t512 -276v-1024q0 -276 -512 -276t-512 276zM213 299q0 -150 299 -149.5t299 149.5v938q0 150 -299 149.5t-299 -149.5v-938zM172 1663l317 219h43l320 -219l-107 -127l-233 170l-236 -170z" />
<glyph unicode="&#xd5;" d="M0 256v1024q0 276 512 276t512 -276v-1024q0 -276 -512 -276t-512 276zM213 299q0 -150 299 -149.5t299 149.5v938q0 150 -299 149.5t-299 -149.5v-938zM127 1579v43q0 213 256 213q106 0 170 -63q66 -66 160 -66q96 0 96 86v43h129v-43q0 -213 -256 -213 q-106 0 -169.5 63.5t-162.5 63.5q-96 0 -96 -84v-43h-127z" />
<glyph unicode="&#xd6;" d="M0 256v1024q0 276 512 276t512 -276v-1024q0 -276 -512 -276t-512 276zM213 299q0 -150 299 -149.5t299 149.5v938q0 150 -299 149.5t-299 -149.5v-938zM193 1772q0 106 106.5 106t106.5 -106.5t-106.5 -106t-106.5 106.5zM619 1772q0 106 106.5 106t106.5 -106.5 t-106.5 -106t-106.5 106.5z" />
<glyph unicode="&#xd7;" horiz-adv-x="1024" d="M-25 436l332 332l-332 332l119 121l332 -332l332 332l121 -121l-332 -332l332 -332l-121 -121l-332 332l-332 -332z" />
<glyph unicode="&#xd8;" d="M-150 496l150 88v696q0 276 512 276t512 -276v-111l55 29l107 -154l-162 -92v-696q0 -276 -512 -276t-512 276v102l-55 -26zM213 299q0 -150 299 -149.5t299 149.5v528l-598 -340v-188zM217 709l598 340v188q0 150 -299 149.5t-299 -149.5v-528z" />
<glyph unicode="&#xd9;" d="M0 256v1280h213v-1237q0 -150 299 -149.5t299 149.5v1237h213v-1280q0 -276 -512 -276t-512 276zM469 1622l-213 256h256l86 -256h-129z" />
<glyph unicode="&#xda;" d="M0 256v1280h213v-1237q0 -150 299 -149.5t299 149.5v1237h213v-1280q0 -276 -512 -276t-512 276zM426 1622l106 256h236l-215 -256h-127z" />
<glyph unicode="&#xdb;" d="M0 256v1280h213v-1237q0 -150 299 -149.5t299 149.5v1237h213v-1280q0 -276 -512 -276t-512 276zM172 1663l317 219h43l320 -219l-107 -127l-233 170l-236 -170z" />
<glyph unicode="&#xdc;" d="M0 256v1280h213v-1237q0 -150 299 -149.5t299 149.5v1237h213v-1280q0 -276 -512 -276t-512 276zM213 1772q0 106 106.5 106t106.5 -106.5t-106.5 -106t-106.5 106.5zM639 1772q0 106 106.5 106t106.5 -106.5t-106.5 -106t-106.5 106.5z" />
<glyph unicode="&#xdd;" horiz-adv-x="1339" d="M0 1536l512 -981v-555h213v555l512 981h-256l-363 -768l-362 768h-256zM555 1622l106 256h236l-215 -256h-127z" />
<glyph unicode="&#xde;" d="M0 0v1536h213v-256h426q385 0 385 -299v-342q0 -297 -385 -297h-426v-342h-213zM213 512h342q256 0 256 170v256q0 172 -256 172h-342v-598z" />
<glyph unicode="&#xdf;" d="M-43 205h86v-205h213v1194q0 193 276 192q279 0 279 -192v-84q0 -172 -256 -172h-190l2 -170h188q256 0 256 -170v-299q0 -150 -129 -149q-127 0 -127 149h-213v-43q0 -276 340 -276q342 0 342 276v383q0 215 -299 215q299 0 299 213v170q0 319 -481 319 q-500 0 -500 -319v-870h-86v-162z" />
<glyph unicode="&#xe0;" horiz-adv-x="1024" d="M0 256v145q0 264 426 265q213 0 213 102v43q0 150 -213 150q-182 0 -182 -150v-86h-213v129q0 276 395 276q428 0 428 -276v-704q0 -150 84 -150h-213q-86 0 -86 150q0 -170 -264 -170q-375 0 -375 276zM213 299q0 -150 213 -149.5t213 200.5v221q0 -76 -213 -75.5 t-213 -137.5v-59zM383 1196l-213 256h256l86 -256h-129z" />
<glyph unicode="&#xe1;" horiz-adv-x="1024" d="M0 256v145q0 264 426 265q213 0 213 102v43q0 150 -213 150q-182 0 -182 -150v-86h-213v129q0 276 395 276q428 0 428 -276v-704q0 -150 84 -150h-213q-86 0 -86 150q0 -170 -264 -170q-375 0 -375 276zM213 299q0 -150 213 -149.5t213 200.5v221q0 -76 -213 -75.5 t-213 -137.5v-59zM342 1196l106 256h236l-215 -256h-127z" />
<glyph unicode="&#xe2;" horiz-adv-x="1024" d="M0 256v145q0 264 426 265q213 0 213 102v43q0 150 -213 150q-182 0 -182 -150v-86h-213v129q0 276 395 276q428 0 428 -276v-704q0 -150 84 -150h-213q-86 0 -86 150q0 -170 -264 -170q-375 0 -375 276zM213 299q0 -150 213 -149.5t213 200.5v221q0 -76 -213 -75.5 t-213 -137.5v-59zM88 1364l317 219h43l320 -219l-107 -127l-233 170l-236 -170z" />
<glyph unicode="&#xe3;" horiz-adv-x="1024" d="M0 256v145q0 264 426 265q213 0 213 102v43q0 150 -213 150q-182 0 -182 -150v-86h-213v129q0 276 395 276q428 0 428 -276v-704q0 -150 84 -150h-213q-86 0 -86 150q0 -170 -264 -170q-375 0 -375 276zM213 299q0 -150 213 -149.5t213 200.5v221q0 -76 -213 -75.5 t-213 -137.5v-59zM43 1237v43q0 213 256 213q106 0 170 -63q66 -66 160 -66q96 0 96 86v43h129v-43q0 -213 -256 -213q-106 0 -169.5 63.5t-162.5 63.5q-96 0 -96 -84v-43h-127z" />
<glyph unicode="&#xe4;" horiz-adv-x="1024" d="M0 256v145q0 264 426 265q213 0 213 102v43q0 150 -213 150q-182 0 -182 -150v-86h-213v129q0 276 395 276q428 0 428 -276v-704q0 -150 84 -150h-213q-86 0 -86 150q0 -170 -264 -170q-375 0 -375 276zM213 299q0 -150 213 -149.5t213 200.5v221q0 -76 -213 -75.5 t-213 -137.5v-59zM127 1346q0 106 106.5 106t106.5 -106.5t-106.5 -106t-106.5 106.5zM553 1346q0 106 106.5 106t106.5 -106.5t-106.5 -106t-106.5 106.5z" />
<glyph unicode="&#xe5;" horiz-adv-x="1024" d="M0 256v145q0 264 426 265q213 0 213 102v43q0 150 -213 150q-182 0 -182 -150v-86h-213v129q0 276 395 276q428 0 428 -276v-704q0 -150 84 -150h-213q-86 0 -86 150q0 -170 -264 -170q-375 0 -375 276zM213 299q0 -150 213 -149.5t213 200.5v221q0 -76 -213 -75.5 t-213 -137.5v-59zM598 1300q0 -127 -172 -126q-170 0 -170 126v86q0 129 170 130q172 0 172 -130v-86zM512 1366q0 63 -86 64q-84 0 -84 -64v-43q0 -63 84 -63q86 0 86 63v43z" />
<glyph unicode="&#xe6;" horiz-adv-x="1748" d="M0 256v145q0 264 426 265q213 0 213 102v43q0 150 -213 150q-182 0 -182 -150v-86h-213v129q0 276 395 276q236 0 322 -106q86 106 362 106q469 0 469 -276v-385h-725v-127q0 -193 256 -192.5t256 149.5v86h213v-129q0 -276 -469 -276q-319 0 -362 170 q-43 -170 -373 -170q-375 0 -375 276zM213 299q0 -150 213 -149.5t213 200.5v221q0 -76 -213 -75.5t-213 -137.5v-59zM854 639h512v172q0 150 -256 150t-256 -150v-172z" />
<glyph unicode="&#xe7;" horiz-adv-x="1107" d="M0 256q0 -276 469 -276t469 276v170h-213v-127q0 -150 -256 -149.5t-256 149.5v512q0 150 256 150t256 -150v-129h213v172q0 276 -469 276t-469 -276v-598zM256 -240v-49q0 -96 192.5 -96t192.5 96v109q0 94 -76 94q-74 0 -73 -39v168h-86v-256h86v29q0 35 30 34 q33 0 33 -43v-71q0 -55 -106.5 -55t-106.5 53v28z" />
<glyph unicode="&#xe8;" horiz-adv-x="1107" d="M0 256q0 -276 469 -276t469 276v129h-213v-86q0 -150 -256 -149.5t-256 149.5v170h725v385q0 276 -469 276t-469 -276v-598zM213 639v172q0 150 256 150t256 -150v-172h-512zM426 1196l-213 256h256l86 -256h-129z" />
<glyph unicode="&#xe9;" horiz-adv-x="1107" d="M0 256q0 -276 469 -276t469 276v129h-213v-86q0 -150 -256 -149.5t-256 149.5v170h725v385q0 276 -469 276t-469 -276v-598zM213 639v172q0 150 256 150t256 -150v-172h-512zM342 1196l106 256h236l-215 -256h-127z" />
<glyph unicode="&#xea;" horiz-adv-x="1107" d="M0 256q0 -276 469 -276t469 276v129h-213v-86q0 -150 -256 -149.5t-256 149.5v170h725v385q0 276 -469 276t-469 -276v-598zM213 639v172q0 150 256 150t256 -150v-172h-512zM129 1364l317 219h43l320 -219l-107 -127l-233 170l-236 -170z" />
<glyph unicode="&#xeb;" horiz-adv-x="1107" d="M0 256q0 -276 469 -276t469 276v129h-213v-86q0 -150 -256 -149.5t-256 149.5v170h725v385q0 276 -469 276t-469 -276v-598zM213 639v172q0 150 256 150t256 -150v-172h-512zM150 1346q0 106 106.5 106t106.5 -106.5t-106.5 -106t-106.5 106.5zM576 1346q0 106 106.5 106 t106.5 -106.5t-106.5 -106t-106.5 106.5z" />
<glyph unicode="&#xec;" horiz-adv-x="382" d="M0 1110v-1110h213v1110h-213zM43 1196l-213 256h256l86 -256h-129z" />
<glyph unicode="&#xed;" horiz-adv-x="382" d="M0 1110v-1110h213v1110h-213zM43 1196l106 256h236l-215 -256h-127z" />
<glyph unicode="&#xee;" horiz-adv-x="382" d="M0 1110v-1110h213v1110h-213zM-234 1323l317 219h43l320 -219l-107 -127l-233 170l-236 -170z" />
<glyph unicode="&#xef;" horiz-adv-x="382" d="M0 1110v-1110h213v1110h-213zM-213 1389q0 106 106.5 106t106.5 -106.5t-106.5 -106t-106.5 106.5zM213 1389q0 106 106.5 106t106.5 -106.5t-106.5 -106t-106.5 106.5z" />
<glyph unicode="&#xf0;" horiz-adv-x="1236" d="M0 256v555q0 256 516 256q248 0 338 -145v145q0 76 -31 127l-184 -107l-59 99l172 92q-158 88 -408 88h-192v170h200q459 0 592 -145l127 86l59 -91l-124 -81q61 -74 61 -172v-877q0 -276 -553 -276q-514 0 -514 276zM213 342q0 -193 311 -192q330 0 330 192v383 q0 172 -338 172q-303 0 -303 -172v-383z" />
<glyph unicode="&#xf1;" horiz-adv-x="1107" d="M0 0h213v811q0 150 256 150t256 -150v-811h213v854q0 276 -362.5 276t-362.5 -169v149h-213v-1110zM63 1280v43q0 213 256 213q106 0 170 -63q66 -66 160 -66q96 0 96 86v43h129v-43q0 -213 -256 -213q-106 0 -169.5 63.5t-162.5 63.5q-96 0 -96 -84v-43h-127z" />
<glyph unicode="&#xf2;" horiz-adv-x="1107" d="M0 256q0 -276 469 -276t469 276v598q0 276 -469 276t-469 -276v-598zM213 299v512q0 150 256 150t256 -150v-512q0 -150 -256 -150t-256 150zM426 1196l-213 256h256l86 -256h-129z" />
<glyph unicode="&#xf3;" horiz-adv-x="1107" d="M0 256q0 -276 469 -276t469 276v598q0 276 -469 276t-469 -276v-598zM213 299v512q0 150 256 150t256 -150v-512q0 -150 -256 -150t-256 150zM426 1196l106 256h236l-215 -256h-127z" />
<glyph unicode="&#xf4;" horiz-adv-x="1107" d="M0 256q0 -276 469 -276t469 276v598q0 276 -469 276t-469 -276v-598zM213 299v512q0 150 256 150t256 -150v-512q0 -150 -256 -150t-256 150zM129 1364l317 219h43l320 -219l-107 -127l-233 170l-236 -170z" />
<glyph unicode="&#xf5;" horiz-adv-x="1107" d="M0 256q0 -276 469 -276t469 276v598q0 276 -469 276t-469 -276v-598zM213 299v512q0 150 256 150t256 -150v-512q0 -150 -256 -150t-256 150zM63 1280v43q0 213 256 213q106 0 170 -63q66 -66 160 -66q96 0 96 86v43h129v-43q0 -213 -256 -213q-106 0 -169.5 63.5 t-162.5 63.5q-96 0 -96 -84v-43h-127z" />
<glyph unicode="&#xf6;" horiz-adv-x="1107" d="M0 256q0 -276 469 -276t469 276v598q0 276 -469 276t-469 -276v-598zM213 299v512q0 150 256 150t256 -150v-512q0 -150 -256 -150t-256 150zM150 1346q0 106 106.5 106t106.5 -106.5t-106.5 -106t-106.5 106.5zM576 1346q0 106 106.5 106t106.5 -106.5t-106.5 -106 t-106.5 106.5z" />
<glyph unicode="&#xf7;" horiz-adv-x="1024" d="M0 682h854v172h-854v-172zM299 426q0 -127 127 -127q129 0 129 127q0 129 -129 129q-127 0 -127 -129zM299 1110q0 -129 127 -129q129 0 129 129q0 127 -129 127q-127 0 -127 -127z" />
<glyph unicode="&#xf8;" horiz-adv-x="1107" d="M-102 119l102 102v633q0 276 469 276q313 -4 381 -92l55 54l144 -103l-111 -106v-627q0 -276 -469 -276q-256 0 -383 81l-51 -45zM213 426l483 465q-23 70 -227 70q-256 0 -256 -150v-385zM244 217q23 -68 225 -67q256 0 256 149v379z" />
<glyph unicode="&#xf9;" horiz-adv-x="1107" d="M0 256q0 -276 362.5 -276t362.5 170v-150h213v1110h-213v-811q0 -150 -256 -149.5t-256 149.5v811h-213v-854zM426 1196l-213 256h256l86 -256h-129z" />
<glyph unicode="&#xfa;" horiz-adv-x="1107" d="M0 256q0 -276 362.5 -276t362.5 170v-150h213v1110h-213v-811q0 -150 -256 -149.5t-256 149.5v811h-213v-854zM342 1196l106 256h236l-215 -256h-127z" />
<glyph unicode="&#xfb;" horiz-adv-x="1107" d="M0 256q0 -276 362.5 -276t362.5 170v-150h213v1110h-213v-811q0 -150 -256 -149.5t-256 149.5v811h-213v-854zM129 1407l317 219h43l320 -219l-107 -127l-233 170l-236 -170z" />
<glyph unicode="&#xfc;" horiz-adv-x="1107" d="M0 256q0 -276 362.5 -276t362.5 170v-150h213v1110h-213v-811q0 -150 -256 -149.5t-256 149.5v811h-213v-854zM150 1346q0 106 106.5 106t106.5 -106.5t-106.5 -106t-106.5 106.5zM576 1346q0 106 106.5 106t106.5 -106.5t-106.5 -106t-106.5 106.5z" />
<glyph unicode="&#xfd;" d="M0 1110h256l299 -860l281 860h256l-502 -1294q-70 -221 -244 -222h-158v170h131q74 0 103 107l41 129zM469 1196l106 256h236l-215 -256h-127z" />
<glyph unicode="&#xfe;" horiz-adv-x="1107" d="M0 -406h213v556q0 -170 362.5 -170t362.5 276v598q0 276 -362.5 276t-362.5 -169v575h-213v-1942zM213 299v512q0 150 256 150t256 -150v-512q0 -150 -256 -150t-256 150z" />
<glyph unicode="&#xff;" d="M0 1110h256l299 -860l281 860h256l-502 -1294q-70 -221 -244 -222h-158v170h131q74 0 103 107l41 129zM221 1346q0 106 106.5 106t106.5 -106.5t-106.5 -106t-106.5 106.5zM647 1346q0 106 106.5 106t106.5 -106.5t-106.5 -106t-106.5 106.5z" />
<glyph unicode="&#x131;" horiz-adv-x="382" d="M0 1110v-1110h213v1110h-213z" />
<glyph unicode="&#x152;" horiz-adv-x="1832" d="M0 256v1024q0 276 512 276q213 0 299 -106v86h852v-170h-639v-492h532v-169h-532v-535h639v-170h-852v86q-86 -106 -299 -106q-512 0 -512 276zM213 299q0 -150 299 -149.5t299 149.5v938q0 150 -299 149.5t-299 -149.5v-938z" />
<glyph unicode="&#x153;" horiz-adv-x="1832" d="M0 256v598q0 276 469 276q279 0 362 -75q84 76 363 75q469 0 469 -276v-385h-725v-170q0 -150 256 -149.5t256 149.5v86h213v-129q0 -276 -469 -276q-279 0 -363 75q-84 -76 -362 -75q-469 0 -469 276zM213 299q0 -150 256 -149.5t256 149.5v512q0 150 -256 150 t-256 -150v-512zM938 639h512v172q0 150 -256 150t-256 -150v-172z" />
<glyph unicode="&#x178;" horiz-adv-x="1339" d="M0 1536l512 -981v-555h213v555l512 981h-256l-363 -768l-362 768h-256zM299 1772q0 106 106.5 106t106.5 -106.5t-106.5 -106t-106.5 106.5zM725 1772q0 106 106.5 106t106.5 -106.5t-106.5 -106t-106.5 106.5z" />
<glyph unicode="&#x2c6;" horiz-adv-x="851" d="M2 1450l317 219h43l320 -219l-107 -127l-233 170l-236 -170z" />
<glyph unicode="&#x2da;" horiz-adv-x="512" d="M342 1300q0 -127 -172 -126q-170 0 -170 126v86q0 129 170 130q172 0 172 -130v-86zM256 1366q0 63 -86 64q-84 0 -84 -64v-43q0 -63 84 -63q86 0 86 63v43z" />
<glyph unicode="&#x2dc;" horiz-adv-x="980" d="M0 1323v43q0 213 256 213q106 0 170 -63q66 -66 160 -66q96 0 96 86v43h129v-43q0 -213 -256 -213q-106 0 -169.5 63.5t-162.5 63.5q-96 0 -96 -84v-43h-127z" />
<glyph unicode="&#x2000;" horiz-adv-x="962" />
<glyph unicode="&#x2001;" horiz-adv-x="1925" />
<glyph unicode="&#x2002;" horiz-adv-x="962" />
<glyph unicode="&#x2003;" horiz-adv-x="1925" />
<glyph unicode="&#x2004;" horiz-adv-x="641" />
<glyph unicode="&#x2005;" horiz-adv-x="481" />
<glyph unicode="&#x2006;" horiz-adv-x="319" />
<glyph unicode="&#x2007;" horiz-adv-x="319" />
<glyph unicode="&#x2008;" horiz-adv-x="239" />
<glyph unicode="&#x2009;" horiz-adv-x="382" />
<glyph unicode="&#x200a;" horiz-adv-x="106" />
<glyph unicode="&#x2010;" horiz-adv-x="1024" d="M0 682h854v172h-854v-172z" />
<glyph unicode="&#x2011;" horiz-adv-x="1024" d="M0 682h854v172h-854v-172z" />
<glyph unicode="&#x2012;" horiz-adv-x="1024" d="M0 682h854v172h-854v-172z" />
<glyph unicode="&#x2013;" horiz-adv-x="1576" d="M127 682h1323v172h-1323v-172z" />
<glyph unicode="&#x2014;" horiz-adv-x="1961" d="M127 682h1708v172h-1708v-172z" />
<glyph unicode="&#x2018;" horiz-adv-x="382" d="M0 1300q0 -106 106.5 -106t106.5 106q0 109 -107 109q0 63 107 64v63q-213 0 -213 -236z" />
<glyph unicode="&#x2019;" horiz-adv-x="382" d="M0 1194q213 0 213 236q0 106 -106.5 106t-106.5 -106.5t106 -106.5q0 -63 -106 -63v-66z" />
<glyph unicode="&#x201a;" horiz-adv-x="382" d="M0 20q0 -106 106.5 -106t106.5 106.5t-107 106.5q0 66 107 66v63q-213 0 -213 -236z" />
<glyph unicode="&#x201c;" horiz-adv-x="681" d="M0 1300q0 -106 106.5 -106t106.5 106q0 109 -107 109q0 63 107 64v63q-213 0 -213 -236zM299 1300q0 -106 106.5 -106t106.5 106q0 109 -106 109q0 63 106 64v63q-213 0 -213 -236z" />
<glyph unicode="&#x201d;" horiz-adv-x="681" d="M0 1194q213 0 213 236q0 106 -106.5 106t-106.5 -106.5t106 -106.5q0 -63 -106 -63v-66zM299 1194q213 0 213 236q0 106 -106.5 106t-106.5 -106.5t107 -106.5q0 -63 -107 -63v-66z" />
<glyph unicode="&#x201e;" horiz-adv-x="690" d="M0 20q0 -106 106.5 -106t106.5 106.5t-107 106.5q0 66 107 66v63q-213 0 -213 -236zM299 20q0 -106 106.5 -106t106.5 106.5t-106 106.5q0 66 106 66v63q-213 0 -213 -236z" />
<glyph unicode="&#x2022;" horiz-adv-x="614" d="M0 759.5q0 -184.5 178 -184.5q176 0 176 184.5t-176 184.5q-178 0 -178 -184.5z" />
<glyph unicode="&#x2026;" horiz-adv-x="675" d="M127 104q0 -109 104 -108q106 0 107 108q0 111 -107 111q-104 0 -104 -111zM553 104q0 -109 104 -108q106 0 107 108q0 111 -107 111q-104 0 -104 -111zM981 104q0 -109 104 -108q106 0 107 108q0 111 -107 111q-104 0 -104 -111z" />
<glyph unicode="&#x202f;" horiz-adv-x="382" />
<glyph unicode="&#x2039;" horiz-adv-x="528" d="M0 731l360 -235v168l-174 102l174 98v176l-360 -225v-84z" />
<glyph unicode="&#x203a;" horiz-adv-x="528" d="M-2 496v168l174 102l-174 98v176l360 -225v-84z" />
<glyph unicode="&#x2044;" horiz-adv-x="1497" d="M1370 1575l-1038 -1630h-203l1059 1630h182z" />
<glyph unicode="&#x205f;" horiz-adv-x="481" />
<glyph unicode="&#x2122;" horiz-adv-x="1406" d="M0 1451h213v-683h106.5v683h214v85h-533.5v-85zM598 768h106.5v533.5l181 -533.5h128l181.5 533.5v-533.5h107.5v768h-149.5l-202.5 -607l-203 607h-149.5v-768z" />
<glyph unicode="&#xe000;" horiz-adv-x="1110" d="M0 1110h1110v-1110h-1110v1110z" />
<glyph unicode="&#xfb01;" horiz-adv-x="1099" d="M701 1439.5q0 -116.5 122.5 -116.5t122.5 116.5t-122.5 116.5t-122.5 -116.5zM717 0h213v1110h-213v-1110zM0 938h119v-938h213v938h215v172h-215v170q0 129 215 129v170h-203q-225 0 -225 -256v-213h-119v-172z" />
<glyph unicode="&#xfb02;" horiz-adv-x="1099" d="M717 0h213v1579h-213v-1579zM0 938h119v-938h213v938h215v172h-215v170q0 129 215 129v170h-203q-225 0 -225 -256v-213h-119v-172z" />
<glyph unicode="&#xfb03;" horiz-adv-x="1816" d="M1418 1439.5q0 -116.5 122.5 -116.5t122.5 116.5t-122.5 116.5t-122.5 -116.5zM1434 0h213v1110h-213v-1110zM717 938h119v-938h213v938h215v172h-215v170q0 129 215 129v170h-203q-225 0 -225 -256v-213h-119v-172zM0 938h119v-938h213v938h215v172h-215v170 q0 129 215 129v170h-203q-225 0 -225 -256v-213h-119v-172z" />
<glyph unicode="&#xfb04;" horiz-adv-x="1816" d="M1434 0h213v1579h-213v-1579zM717 938h119v-938h213v938h215v172h-215v170q0 129 215 129v170h-203q-225 0 -225 -256v-213h-119v-172zM0 938h119v-938h213v938h215v172h-215v170q0 129 215 129v170h-203q-225 0 -225 -256v-213h-119v-172z" />
<glyph horiz-adv-x="512" d="M213 1366l-213 256h256l86 -256h-129z" />
</font>
</defs>
</svg>
